<svg width="1720" height="852" viewBox="0 0 1720 852" fill="none" xmlns="http://www.w3.org/2000/svg">
<rect width="1720" height="852" rx="59" fill="#F4F6F5"/>
<path d="M1453 104L1459.51 123.355H1480.58L1463.53 135.318L1470.05 154.673L1453 142.711L1435.95 154.673L1442.47 135.318L1425.42 123.355H1446.49L1453 104Z" fill="#E7E6E6"/>
<path d="M820 762L826.511 781.355H847.581L830.535 793.318L837.046 812.673L820 800.711L802.954 812.673L809.465 793.318L792.419 781.355H813.489L820 762Z" fill="#E7E6E6"/>
<path d="M777 68L783.511 87.3554H804.581L787.535 99.3177L794.046 118.673L777 106.711L759.954 118.673L766.465 99.3177L749.419 87.3554H770.489L777 68Z" fill="#E7E6E6"/>
<path d="M1608 704L1614.51 723.355H1635.58L1618.53 735.318L1625.05 754.673L1608 742.711L1590.95 754.673L1597.47 735.318L1580.42 723.355H1601.49L1608 704Z" fill="#E7E6E6"/>
</svg>
